<svg xmlns="http://www.w3.org/2000/svg" width="83" height="83" viewBox="0 0 83 83" fill="none"><g filter="url(#filter0_f_112_614)"><rect x="10.0896" y="10.2686" width="62.6866" height="62.6866" rx="17" fill="#1C3584"></rect></g><rect x="10.0896" y="10.2686" width="62.6866" height="62.6866" rx="17" fill="#1C3584"></rect><path d="M52.5877 42.3189C52.9783 41.9284 52.9783 41.2952 52.5877 40.9047L46.2238 34.5407C45.8333 34.1502 45.2001 34.1502 44.8096 34.5407C44.419 34.9313 44.419 35.5644 44.8096 35.955L50.4664 41.6118L44.8096 47.2687C44.419 47.6592 44.419 48.2924 44.8096 48.6829C45.2001 49.0734 45.8333 49.0734 46.2238 48.6829L52.5877 42.3189ZM30.9851 42.6118H51.8806V40.6118H30.9851V42.6118Z" fill="white"></path><defs><filter id="filter0_f_112_614" x="0.0895996" y="0.268555" width="82.6865" height="82.6865" filterUnits="userSpaceOnUse" color-interpolation-filters="sRGB"><feGaussianBlur stdDeviation="5"></feGaussianBlur></filter></defs></svg>