<svg xmlns="http://www.w3.org/2000/svg" width="84" height="84" viewBox="0 0 84 84" fill="none"><g filter="url(#filter0_f_112_303)"><rect x="10.5225" y="10.4033" width="62.6866" height="62.6866" rx="17" fill="#1C3584"></rect></g><rect x="10.5225" y="10.4033" width="62.6866" height="62.6866" rx="17" fill="#1C3584"></rect><path d="M42.5728 30.5917C42.1823 30.2012 41.5491 30.2012 41.1586 30.5917L34.7947 36.9557C34.4041 37.3462 34.4041 37.9794 34.7947 38.3699C35.1852 38.7604 35.8183 38.7604 36.2089 38.3699L41.8657 32.713L47.5226 38.3699C47.9131 38.7604 48.5463 38.7604 48.9368 38.3699C49.3273 37.9794 49.3273 37.3462 48.9368 36.9557L42.5728 30.5917ZM40.8657 31.2988L40.8657 52.1944L42.8657 52.1944L42.8657 31.2988L40.8657 31.2988Z" fill="white"></path><defs><filter id="filter0_f_112_303" x="0.522461" y="0.40332" width="82.6865" height="82.6865" filterUnits="userSpaceOnUse" color-interpolation-filters="sRGB"><feGaussianBlur stdDeviation="5"></feGaussianBlur></filter></defs></svg>