<svg xmlns="http://www.w3.org/2000/svg" width="50" height="50" viewBox="0 0 50 50" fill="none"><rect width="50" height="50" rx="12" fill="#202020"></rect><path d="M18.475 34.3C17.0417 34.3 15.7583 33.95 14.625 33.25C13.4917 32.5333 12.6 31.5 11.95 30.15C11.3 28.8 10.975 27.1667 10.975 25.25C10.975 23.3333 11.3 21.7 11.95 20.35C12.6 19 13.4917 17.975 14.625 17.275C15.7583 16.5583 17.0417 16.2 18.475 16.2C19.925 16.2 21.2083 16.5583 22.325 17.275C23.4583 17.975 24.35 19 25 20.35C25.65 21.7 25.975 23.3333 25.975 25.25C25.975 27.1667 25.65 28.8 25 30.15C24.35 31.5 23.4583 32.5333 22.325 33.25C21.2083 33.95 19.925 34.3 18.475 34.3ZM18.475 30.875C19.1583 30.875 19.75 30.6833 20.25 30.3C20.7667 29.9167 21.1667 29.3083 21.45 28.475C21.75 27.6417 21.9 26.5667 21.9 25.25C21.9 23.9333 21.75 22.8583 21.45 22.025C21.1667 21.1917 20.7667 20.5833 20.25 20.2C19.75 19.8167 19.1583 19.625 18.475 19.625C17.8083 19.625 17.2167 19.8167 16.7 20.2C16.2 20.5833 15.8 21.1917 15.5 22.025C15.2167 22.8583 15.075 23.9333 15.075 25.25C15.075 26.5667 15.2167 27.6417 15.5 28.475C15.8 29.3083 16.2 29.9167 16.7 30.3C17.2167 30.6833 17.8083 30.875 18.475 30.875ZM26.6951 34V31.375L33.4451 25C33.9785 24.5167 34.3701 24.0833 34.6201 23.7C34.8701 23.3167 35.0368 22.9667 35.1201 22.65C35.2201 22.3333 35.2701 22.0417 35.2701 21.775C35.2701 21.075 35.0285 20.5417 34.5451 20.175C34.0785 19.7917 33.3868 19.6 32.4701 19.6C31.7368 19.6 31.0535 19.7417 30.4201 20.025C29.8035 20.3083 29.2785 20.75 28.8451 21.35L25.8951 19.45C26.5618 18.45 27.4951 17.6583 28.6951 17.075C29.8951 16.4917 31.2785 16.2 32.8451 16.2C34.1451 16.2 35.2785 16.4167 36.2451 16.85C37.2285 17.2667 37.9868 17.8583 38.5201 18.625C39.0701 19.3917 39.3451 20.3083 39.3451 21.375C39.3451 21.9417 39.2701 22.5083 39.1201 23.075C38.9868 23.625 38.7035 24.2083 38.2701 24.825C37.8535 25.4417 37.2368 26.1333 36.4201 26.9L30.8201 32.175L30.0451 30.7H39.9201V34H26.6951Z" fill="#5C5C5C"></path></svg>