<svg xmlns="http://www.w3.org/2000/svg" width="50" height="50" viewBox="0 0 50 50" fill="none"><rect width="50" height="50" rx="12" fill="#202020"></rect><path d="M20.475 34.3C19.0417 34.3 17.7583 33.95 16.625 33.25C15.4917 32.5333 14.6 31.5 13.95 30.15C13.3 28.8 12.975 27.1667 12.975 25.25C12.975 23.3333 13.3 21.7 13.95 20.35C14.6 19 15.4917 17.975 16.625 17.275C17.7583 16.5583 19.0417 16.2 20.475 16.2C21.925 16.2 23.2083 16.5583 24.325 17.275C25.4583 17.975 26.35 19 27 20.35C27.65 21.7 27.975 23.3333 27.975 25.25C27.975 27.1667 27.65 28.8 27 30.15C26.35 31.5 25.4583 32.5333 24.325 33.25C23.2083 33.95 21.925 34.3 20.475 34.3ZM20.475 30.875C21.1583 30.875 21.75 30.6833 22.25 30.3C22.7667 29.9167 23.1667 29.3083 23.45 28.475C23.75 27.6417 23.9 26.5667 23.9 25.25C23.9 23.9333 23.75 22.8583 23.45 22.025C23.1667 21.1917 22.7667 20.5833 22.25 20.2C21.75 19.8167 21.1583 19.625 20.475 19.625C19.8083 19.625 19.2167 19.8167 18.7 20.2C18.2 20.5833 17.8 21.1917 17.5 22.025C17.2167 22.8583 17.075 23.9333 17.075 25.25C17.075 26.5667 17.2167 27.6417 17.5 28.475C17.8 29.3083 18.2 29.9167 18.7 30.3C19.2167 30.6833 19.8083 30.875 20.475 30.875ZM31.5451 34V18L33.2951 19.75H28.0451V16.5H35.5951V34H31.5451Z" fill="#5C5C5C"></path></svg>