<svg xmlns="http://www.w3.org/2000/svg" width="1440" height="6231" viewBox="0 0 1440 6231" fill="none"><path d="M-665 -204.53C-469.519 -261.363 -51.3431 -307.43 57.5105 -37.0301C166.364 233.37 581.193 202.97 775 153.97" stroke="#202020"></path><path d="M-665 -174.53C-469.519 -231.363 -51.3431 -277.43 57.5105 -7.03009C166.364 263.37 581.193 232.97 775 183.97" stroke="#202020"></path><path d="M-665 -144.53C-469.519 -201.363 -51.3431 -247.43 57.5105 22.9699C166.364 293.37 581.193 262.97 775 213.97" stroke="#202020"></path><path d="M-665 -114.53C-469.519 -171.363 -51.3431 -217.43 57.5105 52.9699C166.364 323.37 581.193 292.97 775 243.97" stroke="#202020"></path><path d="M-665 -84.5301C-469.519 -141.363 -51.3431 -187.43 57.5105 82.9699C166.364 353.37 581.193 322.97 775 273.97" stroke="#202020"></path><path d="M-665 -54.5301C-469.519 -111.363 -51.3431 -157.43 57.5105 112.97C166.364 383.37 581.193 352.97 775 303.97" stroke="#202020"></path><path d="M-665 -24.5301C-469.519 -81.3634 -51.3431 -127.43 57.5105 142.97C166.364 413.37 581.193 382.97 775 333.97" stroke="#202020"></path><path d="M-665 5.4699C-469.519 -51.3634 -51.3431 -97.4301 57.5105 172.97C166.364 443.37 581.193 412.97 775 363.97" stroke="#202020"></path><path d="M-665 35.4699C-469.519 -21.3634 -51.3431 -67.4301 57.5105 202.97C166.364 473.37 581.193 442.97 775 393.97" stroke="#202020"></path><path d="M-665 65.4699C-469.519 8.63657 -51.3431 -37.4301 57.5105 232.97C166.364 503.37 581.193 472.97 775 423.97" stroke="#202020"></path><path d="M-665 95.4699C-469.519 38.6366 -51.3431 -7.43008 57.5105 262.97C166.364 533.37 581.193 502.97 775 453.97" stroke="#202020"></path><path d="M-665 125.47C-469.519 68.6366 -51.3431 22.5699 57.5105 292.97C166.364 563.37 581.193 532.97 775 483.97" stroke="#202020"></path><path d="M-665 155.47C-469.519 98.6366 -51.3431 52.5699 57.5105 322.97C166.364 593.37 581.193 562.97 775 513.97" stroke="#202020"></path><path d="M-665 185.47C-469.519 128.637 -51.3431 82.5699 57.5105 352.97C166.364 623.37 581.193 592.97 775 543.97" stroke="#202020"></path><path d="M-665 215.47C-469.519 158.637 -51.3431 112.57 57.5105 382.97C166.364 653.37 581.193 622.97 775 573.97" stroke="#202020"></path><path d="M-665 245.47C-469.519 188.637 -51.3431 142.57 57.5105 412.97C166.364 683.37 581.193 652.97 775 603.97" stroke="#202020"></path><path d="M-665 275.47C-469.519 218.637 -51.3431 172.57 57.5105 442.97C166.364 713.37 581.193 682.97 775 633.97" stroke="#202020"></path><path d="M-665 305.47C-469.519 248.637 -51.3431 202.57 57.5105 472.97C166.364 743.37 581.193 712.97 775 663.97" stroke="#202020"></path><path d="M-665 335.47C-469.519 278.637 -51.3431 232.57 57.5105 502.97C166.364 773.37 581.193 742.97 775 693.97" stroke="#202020"></path><path d="M-665 365.47C-469.519 308.637 -51.3431 262.57 57.5105 532.97C166.364 803.37 581.193 772.97 775 723.97" stroke="#202020"></path><path d="M-665 924.47C-469.519 867.637 -51.3431 821.57 57.5105 1091.97C166.364 1362.37 581.193 1331.97 775 1282.97" stroke="#202020"></path><path d="M-665 954.47C-469.519 897.637 -51.3431 851.57 57.5105 1121.97C166.364 1392.37 581.193 1361.97 775 1312.97" stroke="#202020"></path><path d="M-665 984.47C-469.519 927.637 -51.3431 881.57 57.5105 1151.97C166.364 1422.37 581.193 1391.97 775 1342.97" stroke="#202020"></path><path d="M-665 1014.47C-469.519 957.637 -51.3431 911.57 57.5105 1181.97C166.364 1452.37 581.193 1421.97 775 1372.97" stroke="#202020"></path><path d="M-665 1044.47C-469.519 987.637 -51.3431 941.57 57.5105 1211.97C166.364 1482.37 581.193 1451.97 775 1402.97" stroke="#202020"></path><path d="M-665 1074.47C-469.519 1017.64 -51.3431 971.57 57.5105 1241.97C166.364 1512.37 581.193 1481.97 775 1432.97" stroke="#202020"></path><path d="M-665 1104.47C-469.519 1047.64 -51.3431 1001.57 57.5105 1271.97C166.364 1542.37 581.193 1511.97 775 1462.97" stroke="#202020"></path><path d="M-665 1134.47C-469.519 1077.64 -51.3431 1031.57 57.5105 1301.97C166.364 1572.37 581.193 1541.97 775 1492.97" stroke="#202020"></path><path d="M-665 1164.47C-469.519 1107.64 -51.3431 1061.57 57.5105 1331.97C166.364 1602.37 581.193 1571.97 775 1522.97" stroke="#202020"></path><path d="M-665 1194.47C-469.519 1137.64 -51.3431 1091.57 57.5105 1361.97C166.364 1632.37 581.193 1601.97 775 1552.97" stroke="#202020"></path><path d="M-665 1224.47C-469.519 1167.64 -51.3431 1121.57 57.5105 1391.97C166.364 1662.37 581.193 1631.97 775 1582.97" stroke="#202020"></path><path d="M-665 1254.47C-469.519 1197.64 -51.3431 1151.57 57.5105 1421.97C166.364 1692.37 581.193 1661.97 775 1612.97" stroke="#202020"></path><path d="M-665 1284.47C-469.519 1227.64 -51.3431 1181.57 57.5105 1451.97C166.364 1722.37 581.193 1691.97 775 1642.97" stroke="#202020"></path><path d="M-665 1314.47C-469.519 1257.64 -51.3431 1211.57 57.5105 1481.97C166.364 1752.37 581.193 1721.97 775 1672.97" stroke="#202020"></path><path d="M-665 1344.47C-469.519 1287.64 -51.3431 1241.57 57.5105 1511.97C166.364 1782.37 581.193 1751.97 775 1702.97" stroke="#202020"></path><path d="M-665 1374.47C-469.519 1317.64 -51.3431 1271.57 57.5105 1541.97C166.364 1812.37 581.193 1781.97 775 1732.97" stroke="#202020"></path><path d="M-665 1404.47C-469.519 1347.64 -51.3431 1301.57 57.5105 1571.97C166.364 1842.37 581.193 1811.97 775 1762.97" stroke="#202020"></path><path d="M-665 1434.47C-469.519 1377.64 -51.3431 1331.57 57.5105 1601.97C166.364 1872.37 581.193 1841.97 775 1792.97" stroke="#202020"></path><path d="M-665 1464.47C-469.519 1407.64 -51.3431 1361.57 57.5105 1631.97C166.364 1902.37 581.193 1871.97 775 1822.97" stroke="#202020"></path><path d="M-665 1494.47C-469.519 1437.64 -51.3431 1391.57 57.5105 1661.97C166.364 1932.37 581.193 1901.97 775 1852.97" stroke="#202020"></path><path d="M775 2877.47C579.519 2820.64 161.343 2774.57 52.4895 3044.97C-56.364 3315.37 -471.193 3284.97 -665 3235.97" stroke="#202020"></path><path d="M775 2907.47C579.519 2850.64 161.343 2804.57 52.4895 3074.97C-56.364 3345.37 -471.193 3314.97 -665 3265.97" stroke="#202020"></path><path d="M775 2937.47C579.519 2880.64 161.343 2834.57 52.4895 3104.97C-56.364 3375.37 -471.193 3344.97 -665 3295.97" stroke="#202020"></path><path d="M775 2967.47C579.519 2910.64 161.343 2864.57 52.4895 3134.97C-56.364 3405.37 -471.193 3374.97 -665 3325.97" stroke="#202020"></path><path d="M775 2997.47C579.519 2940.64 161.343 2894.57 52.4895 3164.97C-56.364 3435.37 -471.193 3404.97 -665 3355.97" stroke="#202020"></path><path d="M775 3027.47C579.519 2970.64 161.343 2924.57 52.4895 3194.97C-56.364 3465.37 -471.193 3434.97 -665 3385.97" stroke="#202020"></path><path d="M775 3057.47C579.519 3000.64 161.343 2954.57 52.4895 3224.97C-56.364 3495.37 -471.193 3464.97 -665 3415.97" stroke="#202020"></path><path d="M775 3087.47C579.519 3030.64 161.343 2984.57 52.4895 3254.97C-56.364 3525.37 -471.193 3494.97 -665 3445.97" stroke="#202020"></path><path d="M775 3117.47C579.519 3060.64 161.343 3014.57 52.4895 3284.97C-56.364 3555.37 -471.193 3524.97 -665 3475.97" stroke="#202020"></path><path d="M775 3147.47C579.519 3090.64 161.343 3044.57 52.4895 3314.97C-56.364 3585.37 -471.193 3554.97 -665 3505.97" stroke="#202020"></path><path d="M775 3177.47C579.519 3120.64 161.343 3074.57 52.4895 3344.97C-56.364 3615.37 -471.193 3584.97 -665 3535.97" stroke="#202020"></path><path d="M775 3207.47C579.519 3150.64 161.343 3104.57 52.4895 3374.97C-56.364 3645.37 -471.193 3614.97 -665 3565.97" stroke="#202020"></path><path d="M775 3237.47C579.519 3180.64 161.343 3134.57 52.4895 3404.97C-56.364 3675.37 -471.193 3644.97 -665 3595.97" stroke="#202020"></path><path d="M775 3267.47C579.519 3210.64 161.343 3164.57 52.4895 3434.97C-56.364 3705.37 -471.193 3674.97 -665 3625.97" stroke="#202020"></path><path d="M775 3297.47C579.519 3240.64 161.343 3194.57 52.4895 3464.97C-56.364 3735.37 -471.193 3704.97 -665 3655.97" stroke="#202020"></path><path d="M775 3327.47C579.519 3270.64 161.343 3224.57 52.4895 3494.97C-56.364 3765.37 -471.193 3734.97 -665 3685.97" stroke="#202020"></path><path d="M775 3357.47C579.519 3300.64 161.343 3254.57 52.4895 3524.97C-56.364 3795.37 -471.193 3764.97 -665 3715.97" stroke="#202020"></path><path d="M775 3387.47C579.519 3330.64 161.343 3284.57 52.4895 3554.97C-56.364 3825.37 -471.193 3794.97 -665 3745.97" stroke="#202020"></path><path d="M775 3417.47C579.519 3360.64 161.343 3314.57 52.4895 3584.97C-56.364 3855.37 -471.193 3824.97 -665 3775.97" stroke="#202020"></path><path d="M775 3447.47C579.519 3390.64 161.343 3344.57 52.4895 3614.97C-56.364 3885.37 -471.193 3854.97 -665 3805.97" stroke="#202020"></path><path d="M775 3481.47C579.519 3424.64 161.343 3378.57 52.4895 3648.97C-56.364 3919.37 -471.193 3888.97 -665 3839.97" stroke="#202020"></path><path d="M775 3511.47C579.519 3454.64 161.343 3408.57 52.4895 3678.97C-56.364 3949.37 -471.193 3918.97 -665 3869.97" stroke="#202020"></path><path d="M775 3541.47C579.519 3484.64 161.343 3438.57 52.4895 3708.97C-56.364 3979.37 -471.193 3948.97 -665 3899.97" stroke="#202020"></path><path d="M775 3571.47C579.519 3514.64 161.343 3468.57 52.4895 3738.97C-56.364 4009.37 -471.193 3978.97 -665 3929.97" stroke="#202020"></path><path d="M775 3601.47C579.519 3544.64 161.343 3498.57 52.4895 3768.97C-56.364 4039.37 -471.193 4008.97 -665 3959.97" stroke="#202020"></path><path d="M775 3631.47C579.519 3574.64 161.343 3528.57 52.4895 3798.97C-56.364 4069.37 -471.193 4038.97 -665 3989.97" stroke="#202020"></path><path d="M775 3661.47C579.519 3604.64 161.343 3558.57 52.4895 3828.97C-56.364 4099.37 -471.193 4068.97 -665 4019.97" stroke="#202020"></path><path d="M775 3691.47C579.519 3634.64 161.343 3588.57 52.4895 3858.97C-56.364 4129.37 -471.193 4098.97 -665 4049.97" stroke="#202020"></path><path d="M775 3721.47C579.519 3664.64 161.343 3618.57 52.4895 3888.97C-56.364 4159.37 -471.193 4128.97 -665 4079.97" stroke="#202020"></path><path d="M775 3751.47C579.519 3694.64 161.343 3648.57 52.4895 3918.97C-56.364 4189.37 -471.193 4158.97 -665 4109.97" stroke="#202020"></path><path d="M775 3781.47C579.519 3724.64 161.343 3678.57 52.4895 3948.97C-56.364 4219.37 -471.193 4188.97 -665 4139.97" stroke="#202020"></path><path d="M775 3811.47C579.519 3754.64 161.343 3708.57 52.4895 3978.97C-56.364 4249.37 -471.193 4218.97 -665 4169.97" stroke="#202020"></path><path d="M775 3841.47C579.519 3784.64 161.343 3738.57 52.4895 4008.97C-56.364 4279.37 -471.193 4248.97 -665 4199.97" stroke="#202020"></path><path d="M775 3871.47C579.519 3814.64 161.343 3768.57 52.4895 4038.97C-56.364 4309.37 -471.193 4278.97 -665 4229.97" stroke="#202020"></path><path d="M775 3901.47C579.519 3844.64 161.343 3798.57 52.4895 4068.97C-56.364 4339.37 -471.193 4308.97 -665 4259.97" stroke="#202020"></path><path d="M775 3931.47C579.519 3874.64 161.343 3828.57 52.4895 4098.97C-56.364 4369.37 -471.193 4338.97 -665 4289.97" stroke="#202020"></path><path d="M775 3961.47C579.519 3904.64 161.343 3858.57 52.4895 4128.97C-56.364 4399.37 -471.193 4368.97 -665 4319.97" stroke="#202020"></path><path d="M775 3991.47C579.519 3934.64 161.343 3888.57 52.4895 4158.97C-56.364 4429.37 -471.193 4398.97 -665 4349.97" stroke="#202020"></path><path d="M775 4021.47C579.519 3964.64 161.343 3918.57 52.4895 4188.97C-56.364 4459.37 -471.193 4428.97 -665 4379.97" stroke="#202020"></path><path d="M775 4051.47C579.519 3994.64 161.343 3948.57 52.4895 4218.97C-56.364 4489.37 -471.193 4458.97 -665 4409.97" stroke="#202020"></path><path d="M-665 4835.47C-469.519 4778.64 -51.3431 4732.57 57.5105 5002.97C166.364 5273.37 581.193 5242.97 775 5193.97" stroke="#202020"></path><path d="M-665 4865.47C-469.519 4808.64 -51.3431 4762.57 57.5105 5032.97C166.364 5303.37 581.193 5272.97 775 5223.97" stroke="#202020"></path><path d="M-665 4895.47C-469.519 4838.64 -51.3431 4792.57 57.5105 5062.97C166.364 5333.37 581.193 5302.97 775 5253.97" stroke="#202020"></path><path d="M-665 4925.47C-469.519 4868.64 -51.3431 4822.57 57.5105 5092.97C166.364 5363.37 581.193 5332.97 775 5283.97" stroke="#202020"></path><path d="M-665 4955.47C-469.519 4898.64 -51.3431 4852.57 57.5105 5122.97C166.364 5393.37 581.193 5362.97 775 5313.97" stroke="#202020"></path><path d="M-665 4985.47C-469.519 4928.64 -51.3431 4882.57 57.5105 5152.97C166.364 5423.37 581.193 5392.97 775 5343.97" stroke="#202020"></path><path d="M-665 5015.47C-469.519 4958.64 -51.3431 4912.57 57.5105 5182.97C166.364 5453.37 581.193 5422.97 775 5373.97" stroke="#202020"></path><path d="M-665 5045.47C-469.519 4988.64 -51.3431 4942.57 57.5105 5212.97C166.364 5483.37 581.193 5452.97 775 5403.97" stroke="#202020"></path><path d="M-665 5075.47C-469.519 5018.64 -51.3431 4972.57 57.5105 5242.97C166.364 5513.37 581.193 5482.97 775 5433.97" stroke="#202020"></path><path d="M-665 5105.47C-469.519 5048.64 -51.3431 5002.57 57.5105 5272.97C166.364 5543.37 581.193 5512.97 775 5463.97" stroke="#202020"></path><path d="M-665 5135.47C-469.519 5078.64 -51.3431 5032.57 57.5105 5302.97C166.364 5573.37 581.193 5542.97 775 5493.97" stroke="#202020"></path><path d="M-665 5165.47C-469.519 5108.64 -51.3431 5062.57 57.5105 5332.97C166.364 5603.37 581.193 5572.97 775 5523.97" stroke="#202020"></path><path d="M-665 5195.47C-469.519 5138.64 -51.3431 5092.57 57.5105 5362.97C166.364 5633.37 581.193 5602.97 775 5553.97" stroke="#202020"></path><path d="M-665 5225.47C-469.519 5168.64 -51.3431 5122.57 57.5105 5392.97C166.364 5663.37 581.193 5632.97 775 5583.97" stroke="#202020"></path><path d="M-665 5255.47C-469.519 5198.64 -51.3431 5152.57 57.5105 5422.97C166.364 5693.37 581.193 5662.97 775 5613.97" stroke="#202020"></path><path d="M-665 5285.47C-469.519 5228.64 -51.3431 5182.57 57.5105 5452.97C166.364 5723.37 581.193 5692.97 775 5643.97" stroke="#202020"></path><path d="M-665 5315.47C-469.519 5258.64 -51.3431 5212.57 57.5105 5482.97C166.364 5753.37 581.193 5722.97 775 5673.97" stroke="#202020"></path><path d="M-665 5345.47C-469.519 5288.64 -51.3431 5242.57 57.5105 5512.97C166.364 5783.37 581.193 5752.97 775 5703.97" stroke="#202020"></path><path d="M-665 5375.47C-469.519 5318.64 -51.3431 5272.57 57.5105 5542.97C166.364 5813.37 581.193 5782.97 775 5733.97" stroke="#202020"></path><path d="M-665 5405.47C-469.519 5348.64 -51.3431 5302.57 57.5105 5572.97C166.364 5843.37 581.193 5812.97 775 5763.97" stroke="#202020"></path><path d="M-665 5983.69C-297.658 5876.89 488.164 5790.32 692.718 6298.45C897.272 6806.57 1676.8 6749.45 2041 6657.37" stroke="#202020"></path><path d="M-665 6040.06C-297.658 5933.26 488.164 5846.7 692.718 6354.82C897.272 6862.95 1676.8 6805.82 2041 6713.74" stroke="#202020"></path><path d="M-665 6096.44C-297.658 5989.64 488.164 5903.07 692.718 6411.2C897.272 6919.32 1676.8 6862.2 2041 6770.12" stroke="#202020"></path><path d="M-665 6152.81C-297.658 6046.01 488.164 5959.45 692.718 6467.57C897.272 6975.7 1676.8 6918.57 2041 6826.49" stroke="#202020"></path><path d="M-665 6209.19C-297.658 6102.39 488.164 6015.82 692.718 6523.95C897.272 7032.07 1676.8 6974.95 2041 6882.87" stroke="#202020"></path><path d="M-665 6265.56C-297.658 6158.76 488.164 6072.2 692.718 6580.32C897.272 7088.45 1676.8 7031.32 2041 6939.24" stroke="#202020"></path><path d="M-665 6321.94C-297.658 6215.14 488.164 6128.57 692.718 6636.7C897.272 7144.82 1676.8 7087.7 2041 6995.62" stroke="#202020"></path></svg>